<svg id="svg" xmlns="http://www.w3.org/2000/svg" xmlns:xlink="http://www.w3.org/1999/xlink" width="400" height="400" viewBox="0, 0, 400,400"><g id="svgg"><path id="path0" d="M50.800 66.302 C 12.690 77.318,-10.185 126.653,14.964 143.590 C 20.943 147.616,34.199 149.790,33.324 146.600 C 26.009 119.937,35.034 86.904,51.282 80.866 C 71.021 73.530,79.200 84.416,79.200 118.025 C 79.200 150.223,72.916 182.640,57.184 231.600 C 41.916 279.117,39.096 293.939,42.859 306.883 C 48.375 325.858,77.171 330.737,99.968 316.559 C 131.780 296.774,172.992 243.084,195.578 192.000 C 197.621 187.380,199.780 182.520,200.377 181.200 C 220.767 136.088,223.410 90.263,206.504 74.989 C 196.809 66.231,187.213 66.989,177.076 77.315 C 173.629 80.826,170.288 86.747,171.320 87.516 C 171.474 87.630,173.866 89.289,176.635 91.202 C 191.142 101.225,194.999 120.481,188.735 151.600 C 175.226 218.701,108.994 313.686,78.864 309.168 C 72.675 308.240,71.063 299.880,73.931 283.586 C 75.640 273.874,88.279 230.016,94.791 211.200 C 99.153 198.594,106.784 166.940,110.003 148.100 C 116.811 108.248,104.616 73.151,81.530 66.155 C 75.319 64.273,57.525 64.357,50.800 66.302 M341.600 65.708 C 311.792 73.834,291.663 87.971,267.141 118.000 C 221.907 173.393,206.295 252.455,232.307 294.400 C 255.784 332.256,304.468 335.592,337.987 301.642 C 343.950 295.602,344.614 295.565,344.744 301.272 C 345.049 314.674,352.594 324.615,363.605 326.125 L 367.200 326.617 367.200 304.607 C 367.200 275.914,367.884 272.429,382.789 225.200 C 388.086 208.417,388.205 208.000,387.690 208.000 C 387.461 208.000,380.498 205.853,372.218 203.228 C 325.310 188.359,312.873 189.263,304.392 208.161 C 301.110 215.475,300.460 215.200,321.007 215.200 C 335.973 215.200,356.143 216.715,357.395 217.933 C 358.919 219.417,353.342 243.507,348.457 256.545 C 328.630 309.459,286.162 325.677,261.903 289.600 C 224.898 234.566,296.089 80.103,358.502 80.010 C 370.770 79.992,375.210 83.946,375.190 94.870 C 375.168 106.576,363.906 129.194,354.020 137.387 C 349.616 141.036,350.669 144.938,357.167 149.048 C 375.681 160.761,399.231 125.795,393.975 94.398 C 391.773 81.242,387.032 74.438,375.335 67.644 C 370.973 65.110,348.519 63.821,341.600 65.708 " stroke="none" fill="#000000" fill-rule="evenodd"></path></g></svg>